<?xml version="1.0" encoding="UTF-8"?>
<svg id="Layer_1" data-name="Layer 1" xmlns="http://www.w3.org/2000/svg" viewBox="0 0 1920 1080">
  <defs>
    <style>
      .cls-1 {
        fill: #90a955;
      }

      .cls-2 {
        fill: #ecf39e;
      }

      .cls-3 {
        stroke: #fff;
        stroke-width: 2px;
      }

      .cls-3, .cls-4 {
        fill: none;
        stroke-miterlimit: 10;
      }

      .cls-4 {
        stroke: #90a955;
        stroke-width: 3px;
      }
    </style>
  </defs>
  <rect class="cls-1" x="-49.5" y="-40.71" width="1344.83" height="1136.93"/>
  <rect class="cls-2" x="1288.71" y="-40.71" width="680.69" height="1161.9"/>
  <g>
    <path class="cls-2" d="m980.1,301.42c1.96-.01,3.57,1.59,3.55,3.53-.02,1.9-1.6,3.49-3.5,3.51-1.94.02-3.55-1.6-3.54-3.55.01-1.93,1.56-3.47,3.49-3.49Z"/>
    <path class="cls-2" d="m923.72,304.98c-.02-1.99,1.52-3.56,3.51-3.56,1.92,0,3.49,1.55,3.53,3.46.03,1.92-1.6,3.58-3.53,3.58-1.92,0-3.48-1.56-3.5-3.48Z"/>
    <path class="cls-2" d="m923.72,269.62c.02-1.98,1.6-3.5,3.6-3.45,1.91.04,3.46,1.65,3.43,3.55-.03,1.9-1.64,3.48-3.53,3.48-1.95,0-3.53-1.61-3.51-3.58Z"/>
    <path class="cls-2" d="m962.45,213.26c1.97-.02,3.58,1.56,3.57,3.52,0,1.9-1.58,3.48-3.49,3.51-1.96.02-3.56-1.57-3.55-3.53,0-1.93,1.53-3.47,3.47-3.49Z"/>
    <path class="cls-2" d="m994.24,269.71c-.03-1.93,1.49-3.51,3.42-3.55,1.99-.04,3.6,1.49,3.63,3.45.03,1.94-1.59,3.58-3.53,3.58-1.9,0-3.49-1.57-3.51-3.48Z"/>
    <path class="cls-2" d="m980.15,185c-1.94.01-3.5-1.51-3.54-3.43-.04-1.97,1.52-3.57,3.49-3.59,1.96-.02,3.57,1.59,3.55,3.54-.02,1.92-1.58,3.47-3.5,3.48Z"/>
    <path class="cls-2" d="m997.72,185c-1.97-.02-3.52-1.63-3.48-3.6.05-1.92,1.63-3.44,3.56-3.42,1.92.02,3.48,1.59,3.48,3.5,0,1.96-1.6,3.54-3.57,3.52Z"/>
    <path class="cls-2" d="m958.98,269.62c.02-1.98,1.61-3.5,3.6-3.46,1.92.04,3.46,1.63,3.44,3.54-.03,1.9-1.62,3.48-3.52,3.49-1.94,0-3.54-1.61-3.52-3.57Z"/>
    <path class="cls-2" d="m976.61,199.15c-.01-1.97,1.57-3.54,3.54-3.53,1.93.01,3.49,1.56,3.5,3.48.01,1.95-1.6,3.55-3.56,3.53-1.93-.02-3.48-1.56-3.49-3.49Z"/>
    <path class="cls-2" d="m997.72,202.64c-1.97-.02-3.53-1.63-3.48-3.6.05-1.92,1.62-3.44,3.56-3.42,1.97.02,3.54,1.63,3.48,3.59-.05,1.92-1.64,3.44-3.56,3.42Z"/>
    <path class="cls-2" d="m980.11,230.89c1.98,0,3.57,1.58,3.54,3.54-.03,1.91-1.61,3.48-3.51,3.49-1.95,0-3.54-1.6-3.53-3.56.02-1.93,1.56-3.46,3.5-3.46Z"/>
    <path class="cls-2" d="m994.24,234.34c.03-1.97,1.63-3.49,3.62-3.45,1.92.05,3.45,1.63,3.42,3.55-.03,1.91-1.62,3.47-3.52,3.47-1.95,0-3.54-1.62-3.52-3.58Z"/>
    <path class="cls-2" d="m976.61,216.75c0-1.93,1.54-3.47,3.47-3.49,1.98-.02,3.58,1.55,3.57,3.51,0,1.91-1.57,3.48-3.49,3.51-1.96.03-3.56-1.56-3.56-3.53Z"/>
    <path class="cls-2" d="m958.98,234.39c0-1.98,1.58-3.52,3.57-3.49,1.92.02,3.48,1.59,3.47,3.51,0,1.9-1.58,3.49-3.49,3.52-1.95.03-3.56-1.57-3.56-3.53Z"/>
    <path class="cls-2" d="m997.77,248.53c1.93,0,3.49,1.54,3.51,3.46.02,1.94-1.6,3.58-3.54,3.57-1.91-.01-3.49-1.58-3.51-3.49-.02-1.97,1.55-3.55,3.53-3.54Z"/>
    <path class="cls-2" d="m941.35,287.33c-.02-1.99,1.53-3.55,3.52-3.54,1.92,0,3.49,1.56,3.51,3.47.02,1.93-1.61,3.58-3.54,3.57-1.91-.01-3.48-1.57-3.49-3.49Z"/>
    <path class="cls-2" d="m962.44,185c-1.98-.03-3.51-1.62-3.46-3.61.04-1.92,1.63-3.44,3.56-3.41,1.92.03,3.48,1.6,3.48,3.51,0,1.95-1.61,3.54-3.58,3.51Z"/>
    <path class="cls-2" d="m958.98,287.3c0-1.98,1.57-3.53,3.56-3.51,1.92.02,3.48,1.59,3.48,3.5,0,1.93-1.65,3.57-3.58,3.53-1.91-.03-3.46-1.61-3.46-3.53Z"/>
    <path class="cls-2" d="m976.61,287.31c0-1.97,1.57-3.53,3.56-3.51,1.92.02,3.48,1.58,3.48,3.5,0,1.94-1.64,3.57-3.57,3.54-1.91-.03-3.47-1.61-3.47-3.52Z"/>
    <path class="cls-2" d="m994.24,287.26c.02-1.97,1.62-3.51,3.61-3.47,1.92.04,3.46,1.62,3.44,3.54-.02,1.9-1.61,3.48-3.51,3.49-1.94,0-3.55-1.62-3.54-3.57Z"/>
    <path class="cls-2" d="m962.53,202.64c-1.93.02-3.51-1.49-3.55-3.42-.04-1.99,1.49-3.57,3.47-3.6,1.97-.02,3.58,1.56,3.57,3.51,0,1.91-1.57,3.48-3.49,3.5Z"/>
    <path class="cls-2" d="m941.35,304.95c0-1.99,1.55-3.55,3.54-3.53,1.92.01,3.48,1.58,3.5,3.49.02,1.93-1.63,3.57-3.56,3.55-1.91-.02-3.47-1.59-3.48-3.51Z"/>
    <path class="cls-2" d="m994.24,304.89c.02-1.96,1.63-3.51,3.61-3.47,1.91.04,3.45,1.63,3.43,3.55-.02,1.9-1.61,3.48-3.51,3.49-1.94,0-3.55-1.62-3.53-3.57Z"/>
    <path class="cls-2" d="m941.35,216.71c.02-1.94,1.56-3.45,3.51-3.45,1.97,0,3.56,1.61,3.53,3.55-.04,1.91-1.62,3.47-3.53,3.47-1.96,0-3.53-1.59-3.5-3.57Z"/>
    <path class="cls-2" d="m944.86,185c-1.94,0-3.49-1.52-3.51-3.45-.02-1.98,1.53-3.57,3.5-3.57,1.92,0,3.5,1.55,3.53,3.46.04,1.95-1.56,3.56-3.52,3.56Z"/>
    <path class="cls-2" d="m958.98,252.07c-.02-1.94,1.49-3.5,3.42-3.54,1.98-.04,3.59,1.51,3.62,3.47.02,1.93-1.62,3.58-3.55,3.56-1.91-.01-3.48-1.58-3.49-3.49Z"/>
    <path class="cls-2" d="m941.35,269.62c.02-1.98,1.6-3.5,3.6-3.46,1.91.04,3.46,1.64,3.44,3.54-.03,1.9-1.62,3.48-3.52,3.49-1.95,0-3.54-1.6-3.52-3.57Z"/>
    <path class="cls-2" d="m941.35,234.42c-.01-1.95,1.49-3.49,3.43-3.53,1.98-.03,3.59,1.52,3.61,3.48.01,1.93-1.62,3.57-3.56,3.55-1.92-.02-3.47-1.57-3.48-3.5Z"/>
    <path class="cls-2" d="m941.35,199.14c0-1.98,1.56-3.54,3.54-3.52,1.92.02,3.48,1.57,3.5,3.49.01,1.94-1.61,3.55-3.57,3.53-1.93-.02-3.46-1.56-3.47-3.5Z"/>
    <path class="cls-2" d="m923.72,287.35c-.02-1.99,1.52-3.56,3.5-3.56,1.92,0,3.5,1.54,3.53,3.46.03,1.92-1.6,3.58-3.53,3.58-1.91,0-3.48-1.56-3.5-3.48Z"/>
    <path class="cls-2" d="m958.98,304.93c0-1.97,1.58-3.53,3.56-3.51,1.91.02,3.48,1.61,3.47,3.51,0,1.9-1.58,3.5-3.48,3.53-1.94.03-3.56-1.57-3.56-3.53Z"/>
    <path class="cls-2" d="m976.61,269.71c-.02-1.98,1.53-3.55,3.52-3.55,1.93,0,3.5,1.54,3.53,3.45.03,1.93-1.6,3.58-3.53,3.58-1.9,0-3.49-1.57-3.51-3.48Z"/>
    <path class="cls-2" d="m997.72,213.26c1.98-.02,3.57,1.55,3.57,3.51,0,1.91-1.57,3.48-3.48,3.51-1.95.03-3.57-1.57-3.56-3.53,0-1.93,1.55-3.47,3.48-3.49Z"/>
    <path class="cls-2" d="m923.72,216.79c-.01-1.99,1.54-3.54,3.53-3.53,1.93.01,3.49,1.57,3.51,3.48.01,1.94-1.62,3.56-3.56,3.55-1.92-.02-3.47-1.57-3.48-3.5Z"/>
    <path class="cls-2" d="m923.72,252.05c0-1.99,1.55-3.54,3.54-3.52,1.92.02,3.49,1.58,3.5,3.49.01,1.92-1.65,3.57-3.57,3.55-1.92-.02-3.46-1.59-3.47-3.51Z"/>
    <path class="cls-2" d="m941.35,252c.01-1.98,1.6-3.51,3.59-3.47,1.92.04,3.47,1.63,3.44,3.54-.02,1.9-1.61,3.48-3.51,3.5-1.95.01-3.54-1.6-3.52-3.56Z"/>
    <path class="cls-2" d="m980.1,248.53c1.97-.01,3.57,1.57,3.55,3.53-.02,1.9-1.6,3.48-3.5,3.5-1.94.02-3.55-1.6-3.54-3.56.01-1.93,1.55-3.46,3.49-3.47Z"/>
    <path class="cls-2" d="m923.72,234.4c0-1.99,1.56-3.52,3.55-3.5,1.92.02,3.48,1.59,3.48,3.5,0,1.93-1.65,3.56-3.58,3.53-1.92-.03-3.45-1.6-3.45-3.52Z"/>
    <path class="cls-2" d="m927.24,185c-1.94,0-3.49-1.5-3.52-3.44-.03-1.99,1.51-3.57,3.49-3.58,1.95,0,3.58,1.62,3.55,3.55-.03,1.92-1.59,3.46-3.52,3.47Z"/>
    <path class="cls-2" d="m923.72,199.11c0-1.94,1.53-3.47,3.47-3.49,1.96-.02,3.58,1.58,3.57,3.52-.01,1.95-1.64,3.53-3.6,3.5-1.94-.04-3.45-1.59-3.44-3.53Z"/>
    <path class="cls-2" d="m1068.25,301.39c1.96-.01,3.57,1.59,3.55,3.53-.02,1.9-1.6,3.49-3.5,3.51-1.94.02-3.55-1.6-3.54-3.55.01-1.93,1.56-3.47,3.49-3.49Z"/>
    <path class="cls-2" d="m1011.88,304.95c-.02-1.99,1.52-3.56,3.51-3.56,1.92,0,3.49,1.55,3.53,3.46.03,1.92-1.6,3.58-3.53,3.58-1.92,0-3.48-1.56-3.5-3.48Z"/>
    <path class="cls-2" d="m1011.88,269.59c.02-1.98,1.6-3.5,3.6-3.45,1.91.04,3.46,1.65,3.43,3.55-.03,1.9-1.64,3.48-3.53,3.48-1.95,0-3.53-1.61-3.51-3.58Z"/>
    <path class="cls-2" d="m1050.61,213.23c1.97-.02,3.58,1.56,3.57,3.52,0,1.9-1.58,3.48-3.49,3.51-1.96.02-3.56-1.57-3.55-3.53,0-1.93,1.53-3.47,3.47-3.49Z"/>
    <path class="cls-2" d="m1082.4,269.69c-.03-1.93,1.49-3.51,3.42-3.55,1.99-.04,3.6,1.49,3.63,3.45.03,1.94-1.59,3.58-3.53,3.58-1.9,0-3.49-1.57-3.51-3.48Z"/>
    <path class="cls-2" d="m1068.31,184.97c-1.94.01-3.5-1.51-3.54-3.43-.04-1.97,1.52-3.57,3.49-3.59,1.96-.02,3.57,1.59,3.55,3.54-.02,1.92-1.58,3.47-3.5,3.48Z"/>
    <path class="cls-2" d="m1085.87,184.97c-1.97-.02-3.52-1.63-3.48-3.6.05-1.92,1.63-3.44,3.56-3.42,1.92.02,3.48,1.59,3.48,3.5,0,1.96-1.6,3.54-3.57,3.52Z"/>
    <path class="cls-2" d="m1047.14,269.59c.02-1.98,1.61-3.5,3.6-3.46,1.92.04,3.46,1.63,3.44,3.54-.03,1.9-1.62,3.48-3.52,3.49-1.94,0-3.54-1.61-3.52-3.57Z"/>
    <path class="cls-2" d="m1064.77,199.12c-.01-1.97,1.57-3.54,3.54-3.53,1.93.01,3.49,1.56,3.5,3.48.01,1.95-1.6,3.55-3.56,3.53-1.93-.02-3.48-1.56-3.49-3.49Z"/>
    <path class="cls-2" d="m1085.88,202.61c-1.97-.02-3.53-1.63-3.48-3.6.05-1.92,1.62-3.44,3.56-3.42,1.97.02,3.54,1.63,3.48,3.59-.05,1.92-1.64,3.44-3.56,3.42Z"/>
    <path class="cls-2" d="m1068.27,230.87c1.98,0,3.57,1.58,3.54,3.54-.03,1.91-1.61,3.48-3.51,3.49-1.95,0-3.54-1.6-3.53-3.56.02-1.93,1.56-3.46,3.5-3.46Z"/>
    <path class="cls-2" d="m1082.4,234.32c.03-1.97,1.63-3.49,3.62-3.45,1.92.05,3.45,1.63,3.42,3.55-.03,1.91-1.62,3.47-3.52,3.47-1.95,0-3.54-1.62-3.52-3.58Z"/>
    <path class="cls-2" d="m1064.77,216.72c0-1.93,1.54-3.47,3.47-3.49,1.98-.02,3.58,1.55,3.57,3.51,0,1.91-1.57,3.48-3.49,3.51-1.96.03-3.56-1.56-3.56-3.53Z"/>
    <path class="cls-2" d="m1047.14,234.36c0-1.98,1.58-3.52,3.57-3.49,1.92.02,3.48,1.59,3.47,3.51,0,1.9-1.58,3.49-3.49,3.52-1.95.03-3.56-1.57-3.56-3.53Z"/>
    <path class="cls-2" d="m1085.93,248.5c1.93,0,3.49,1.54,3.51,3.46.02,1.94-1.6,3.58-3.54,3.57-1.91-.01-3.49-1.58-3.51-3.49-.02-1.97,1.55-3.55,3.53-3.54Z"/>
    <path class="cls-2" d="m1029.51,287.31c-.02-1.99,1.53-3.55,3.52-3.54,1.92,0,3.49,1.56,3.51,3.47.02,1.93-1.61,3.58-3.54,3.57-1.91-.01-3.48-1.57-3.49-3.49Z"/>
    <path class="cls-2" d="m1050.6,184.97c-1.98-.03-3.51-1.62-3.46-3.61.04-1.92,1.63-3.44,3.56-3.41,1.92.03,3.48,1.6,3.48,3.51,0,1.95-1.61,3.54-3.58,3.51Z"/>
    <path class="cls-2" d="m1047.14,287.27c0-1.98,1.57-3.53,3.56-3.51,1.92.02,3.48,1.59,3.48,3.5,0,1.93-1.65,3.57-3.58,3.53-1.91-.03-3.46-1.61-3.46-3.53Z"/>
    <path class="cls-2" d="m1064.77,287.28c0-1.97,1.57-3.53,3.56-3.51,1.92.02,3.48,1.58,3.48,3.5,0,1.94-1.64,3.57-3.57,3.54-1.91-.03-3.47-1.61-3.47-3.52Z"/>
    <path class="cls-2" d="m1082.4,287.23c.02-1.97,1.62-3.51,3.61-3.47,1.92.04,3.46,1.62,3.44,3.54-.02,1.9-1.61,3.48-3.51,3.49-1.94,0-3.55-1.62-3.54-3.57Z"/>
    <path class="cls-2" d="m1050.69,202.61c-1.93.02-3.51-1.49-3.55-3.42-.04-1.99,1.49-3.57,3.47-3.6,1.97-.02,3.58,1.56,3.57,3.51,0,1.91-1.57,3.48-3.49,3.5Z"/>
    <path class="cls-2" d="m1029.51,304.93c0-1.99,1.55-3.55,3.54-3.53,1.92.01,3.48,1.58,3.5,3.49.02,1.93-1.63,3.57-3.56,3.55-1.91-.02-3.47-1.59-3.48-3.51Z"/>
    <path class="cls-2" d="m1082.4,304.86c.02-1.96,1.63-3.51,3.61-3.47,1.91.04,3.45,1.63,3.43,3.55-.02,1.9-1.61,3.48-3.51,3.49-1.94,0-3.55-1.62-3.53-3.57Z"/>
    <path class="cls-2" d="m1029.51,216.68c.02-1.94,1.56-3.45,3.51-3.45,1.97,0,3.56,1.61,3.53,3.55-.04,1.91-1.62,3.47-3.53,3.47-1.96,0-3.53-1.59-3.5-3.57Z"/>
    <path class="cls-2" d="m1033.02,184.97c-1.94,0-3.49-1.52-3.51-3.45-.02-1.98,1.53-3.57,3.5-3.57,1.92,0,3.5,1.55,3.53,3.46.04,1.95-1.56,3.56-3.52,3.56Z"/>
    <path class="cls-2" d="m1047.14,252.04c-.02-1.94,1.49-3.5,3.42-3.54,1.98-.04,3.59,1.51,3.62,3.47.02,1.93-1.62,3.58-3.55,3.56-1.91-.01-3.48-1.58-3.49-3.49Z"/>
    <path class="cls-2" d="m1029.51,269.59c.02-1.98,1.6-3.5,3.6-3.46,1.91.04,3.46,1.64,3.44,3.54-.03,1.9-1.62,3.48-3.52,3.49-1.95,0-3.54-1.6-3.52-3.57Z"/>
    <path class="cls-2" d="m1029.51,234.39c-.01-1.95,1.49-3.49,3.43-3.53,1.98-.03,3.59,1.52,3.61,3.48.01,1.93-1.62,3.57-3.56,3.55-1.92-.02-3.47-1.57-3.48-3.5Z"/>
    <path class="cls-2" d="m1029.51,199.12c0-1.98,1.56-3.54,3.54-3.52,1.92.02,3.48,1.57,3.5,3.49.01,1.94-1.61,3.55-3.57,3.53-1.93-.02-3.46-1.56-3.47-3.5Z"/>
    <path class="cls-2" d="m1011.88,287.32c-.02-1.99,1.52-3.56,3.5-3.56,1.92,0,3.5,1.54,3.53,3.46.03,1.92-1.6,3.58-3.53,3.58-1.91,0-3.48-1.56-3.5-3.48Z"/>
    <path class="cls-2" d="m1047.14,304.9c0-1.97,1.58-3.53,3.56-3.51,1.91.02,3.48,1.61,3.47,3.51,0,1.9-1.58,3.5-3.48,3.53-1.94.03-3.56-1.57-3.56-3.53Z"/>
    <path class="cls-2" d="m1064.77,269.69c-.02-1.98,1.53-3.55,3.52-3.55,1.93,0,3.5,1.54,3.53,3.45.03,1.93-1.6,3.58-3.53,3.58-1.9,0-3.49-1.57-3.51-3.48Z"/>
    <path class="cls-2" d="m1085.87,213.23c1.98-.02,3.57,1.55,3.57,3.51,0,1.91-1.57,3.48-3.48,3.51-1.95.03-3.57-1.57-3.56-3.53,0-1.93,1.55-3.47,3.48-3.49Z"/>
    <path class="cls-2" d="m1011.87,216.76c-.01-1.99,1.54-3.54,3.53-3.53,1.93.01,3.49,1.57,3.51,3.48.01,1.94-1.62,3.56-3.56,3.55-1.92-.02-3.47-1.57-3.48-3.5Z"/>
    <path class="cls-2" d="m1011.88,252.02c0-1.99,1.55-3.54,3.54-3.52,1.92.02,3.49,1.58,3.5,3.49.01,1.92-1.65,3.57-3.57,3.55-1.92-.02-3.46-1.59-3.47-3.51Z"/>
    <path class="cls-2" d="m1029.51,251.97c.01-1.98,1.6-3.51,3.59-3.47,1.92.04,3.47,1.63,3.44,3.54-.02,1.9-1.61,3.48-3.51,3.5-1.95.01-3.54-1.6-3.52-3.56Z"/>
    <path class="cls-2" d="m1068.26,248.5c1.97-.01,3.57,1.57,3.55,3.53-.02,1.9-1.6,3.48-3.5,3.5-1.94.02-3.55-1.6-3.54-3.56.01-1.93,1.55-3.46,3.49-3.47Z"/>
    <path class="cls-2" d="m1011.88,234.37c0-1.99,1.56-3.52,3.55-3.5,1.92.02,3.48,1.59,3.48,3.5,0,1.93-1.65,3.56-3.58,3.53-1.92-.03-3.45-1.6-3.45-3.52Z"/>
    <path class="cls-2" d="m1015.4,184.97c-1.94,0-3.49-1.5-3.52-3.44-.03-1.99,1.51-3.57,3.49-3.58,1.95,0,3.58,1.62,3.55,3.55-.03,1.92-1.59,3.46-3.52,3.47Z"/>
    <path class="cls-2" d="m1011.87,199.08c0-1.94,1.53-3.47,3.47-3.49,1.96-.02,3.58,1.58,3.57,3.52-.01,1.95-1.64,3.53-3.6,3.5-1.94-.04-3.45-1.59-3.44-3.53Z"/>
    <path class="cls-2" d="m891.94,301.42c1.96-.01,3.57,1.59,3.55,3.53-.02,1.9-1.6,3.49-3.5,3.51-1.94.02-3.55-1.6-3.54-3.55.01-1.93,1.56-3.47,3.49-3.49Z"/>
    <path class="cls-2" d="m906.08,269.71c-.03-1.93,1.49-3.51,3.42-3.55,1.99-.04,3.6,1.49,3.63,3.45.03,1.94-1.59,3.58-3.53,3.58-1.9,0-3.49-1.57-3.51-3.48Z"/>
    <path class="cls-2" d="m891.99,184.99c-1.94.01-3.5-1.51-3.54-3.43-.04-1.97,1.52-3.57,3.49-3.59,1.96-.02,3.57,1.59,3.55,3.54-.02,1.92-1.58,3.47-3.5,3.48Z"/>
    <path class="cls-2" d="m909.56,184.99c-1.97-.02-3.52-1.63-3.48-3.6.05-1.92,1.63-3.44,3.56-3.42,1.92.02,3.48,1.59,3.48,3.5,0,1.96-1.6,3.54-3.57,3.52Z"/>
    <path class="cls-2" d="m888.45,199.14c-.01-1.97,1.57-3.54,3.54-3.53,1.93.01,3.49,1.56,3.5,3.48.01,1.95-1.6,3.55-3.56,3.53-1.93-.02-3.48-1.56-3.49-3.49Z"/>
    <path class="cls-2" d="m909.56,202.63c-1.97-.02-3.53-1.63-3.48-3.6.05-1.92,1.62-3.44,3.56-3.42,1.97.02,3.54,1.63,3.48,3.59-.05,1.92-1.64,3.44-3.56,3.42Z"/>
    <path class="cls-2" d="m891.95,230.89c1.98,0,3.57,1.58,3.54,3.54-.03,1.91-1.61,3.48-3.51,3.49-1.95,0-3.54-1.6-3.53-3.56.02-1.93,1.56-3.46,3.5-3.46Z"/>
    <path class="cls-2" d="m906.08,234.34c.03-1.97,1.63-3.49,3.62-3.45,1.92.05,3.45,1.63,3.42,3.55-.03,1.91-1.62,3.47-3.52,3.47-1.95,0-3.54-1.62-3.52-3.58Z"/>
    <path class="cls-2" d="m888.45,216.75c0-1.93,1.54-3.47,3.47-3.49,1.98-.02,3.58,1.55,3.57,3.51,0,1.91-1.57,3.48-3.49,3.51-1.96.03-3.56-1.56-3.56-3.53Z"/>
    <path class="cls-2" d="m909.61,248.52c1.93,0,3.49,1.54,3.51,3.46.02,1.94-1.6,3.58-3.54,3.57-1.91-.01-3.49-1.58-3.51-3.49-.02-1.97,1.55-3.55,3.53-3.54Z"/>
    <path class="cls-2" d="m888.45,287.3c0-1.97,1.57-3.53,3.56-3.51,1.92.02,3.48,1.58,3.48,3.5,0,1.94-1.64,3.57-3.57,3.54-1.91-.03-3.47-1.61-3.47-3.52Z"/>
    <path class="cls-2" d="m906.08,287.26c.02-1.97,1.62-3.51,3.61-3.47,1.92.04,3.46,1.62,3.44,3.54-.02,1.9-1.61,3.48-3.51,3.49-1.94,0-3.55-1.62-3.54-3.57Z"/>
    <path class="cls-2" d="m906.08,304.89c.02-1.96,1.63-3.51,3.61-3.47,1.91.04,3.45,1.63,3.43,3.55-.02,1.9-1.61,3.48-3.51,3.49-1.94,0-3.55-1.62-3.53-3.57Z"/>
    <g>
      <path class="cls-2" d="m976.61,340.25c-.02-1.97,1.55-3.57,3.51-3.57,1.91,0,3.5,1.56,3.53,3.47.03,1.94-1.59,3.58-3.53,3.57-1.92,0-3.49-1.56-3.51-3.47Z"/>
      <path class="cls-2" d="m958.98,322.53c.02-1.93,1.57-3.47,3.5-3.48,1.95,0,3.57,1.61,3.54,3.55-.02,1.9-1.62,3.48-3.52,3.49-1.95,0-3.54-1.6-3.52-3.57Z"/>
      <path class="cls-2" d="m923.72,340.18c.01-1.94,1.54-3.48,3.47-3.5,1.95-.01,3.58,1.6,3.56,3.54-.01,1.9-1.6,3.48-3.5,3.5-1.96.02-3.54-1.57-3.53-3.55Z"/>
      <path class="cls-2" d="m997.8,319.05c1.92.02,3.48,1.59,3.48,3.5,0,1.94-1.62,3.56-3.56,3.54-1.91-.02-3.47-1.61-3.48-3.52,0-1.96,1.59-3.54,3.56-3.53Z"/>
      <path class="cls-2" d="m958.98,340.15c.02-1.92,1.58-3.47,3.5-3.47,1.95,0,3.56,1.62,3.53,3.57-.03,1.9-1.62,3.48-3.52,3.48-1.96,0-3.54-1.6-3.51-3.57Z"/>
      <path class="cls-2" d="m941.35,322.57c0-1.98,1.57-3.54,3.55-3.52,1.91.02,3.48,1.6,3.48,3.51,0,1.93-1.64,3.56-3.57,3.54-1.92-.03-3.46-1.6-3.46-3.52Z"/>
      <path class="cls-2" d="m941.35,340.16c.02-1.93,1.56-3.47,3.49-3.48,1.95,0,3.57,1.62,3.54,3.56-.02,1.9-1.61,3.48-3.52,3.49-1.96,0-3.54-1.59-3.52-3.56Z"/>
      <path class="cls-2" d="m927.2,319.05c1.95-.02,3.57,1.6,3.56,3.54-.01,1.9-1.6,3.49-3.5,3.51-1.91.02-3.5-1.53-3.53-3.45-.03-1.99,1.5-3.58,3.47-3.6Z"/>
      <path class="cls-2" d="m997.8,336.68c1.91.02,3.48,1.6,3.48,3.51,0,1.95-1.62,3.56-3.57,3.53-1.91-.02-3.47-1.6-3.48-3.51,0-1.96,1.6-3.55,3.56-3.53Z"/>
      <path class="cls-2" d="m980.09,319.05c1.96-.02,3.57,1.58,3.57,3.53,0,1.9-1.59,3.49-3.49,3.51-1.94.02-3.56-1.59-3.55-3.54,0-1.93,1.55-3.48,3.48-3.5Z"/>
      <path class="cls-2" d="m1064.77,340.22c-.02-1.97,1.55-3.57,3.51-3.57,1.91,0,3.5,1.56,3.53,3.47.03,1.94-1.59,3.58-3.53,3.57-1.92,0-3.49-1.56-3.51-3.47Z"/>
      <path class="cls-2" d="m1047.14,322.5c.02-1.93,1.57-3.47,3.5-3.48,1.95,0,3.57,1.61,3.54,3.55-.02,1.9-1.62,3.48-3.52,3.49-1.95,0-3.54-1.6-3.52-3.57Z"/>
      <path class="cls-2" d="m1011.88,340.15c.01-1.94,1.54-3.48,3.47-3.5,1.95-.01,3.58,1.6,3.56,3.54-.01,1.9-1.6,3.48-3.5,3.5-1.96.02-3.54-1.57-3.53-3.55Z"/>
      <path class="cls-2" d="m1085.96,319.02c1.92.02,3.48,1.59,3.48,3.5,0,1.94-1.62,3.56-3.56,3.54-1.91-.02-3.47-1.61-3.48-3.52,0-1.96,1.59-3.54,3.56-3.53Z"/>
      <path class="cls-2" d="m1047.14,340.13c.02-1.92,1.58-3.47,3.5-3.47,1.95,0,3.56,1.62,3.53,3.57-.03,1.9-1.62,3.48-3.52,3.48-1.96,0-3.54-1.6-3.51-3.57Z"/>
      <path class="cls-2" d="m1029.51,322.55c0-1.98,1.57-3.54,3.55-3.52,1.91.02,3.48,1.6,3.48,3.51,0,1.93-1.64,3.56-3.57,3.54-1.92-.03-3.46-1.6-3.46-3.52Z"/>
      <path class="cls-2" d="m1029.51,340.14c.02-1.93,1.56-3.47,3.49-3.48,1.95,0,3.57,1.62,3.54,3.56-.02,1.9-1.61,3.48-3.52,3.49-1.96,0-3.54-1.59-3.52-3.56Z"/>
      <path class="cls-2" d="m1015.35,319.02c1.95-.02,3.57,1.6,3.56,3.54-.01,1.9-1.6,3.49-3.5,3.51-1.91.02-3.5-1.53-3.53-3.45-.03-1.99,1.5-3.58,3.47-3.6Z"/>
      <path class="cls-2" d="m1085.96,336.65c1.91.02,3.48,1.6,3.48,3.51,0,1.95-1.62,3.56-3.57,3.53-1.91-.02-3.47-1.6-3.48-3.51,0-1.96,1.6-3.55,3.56-3.53Z"/>
      <path class="cls-2" d="m1068.24,319.02c1.96-.02,3.57,1.58,3.57,3.53,0,1.9-1.59,3.49-3.49,3.51-1.94.02-3.56-1.59-3.55-3.54,0-1.93,1.55-3.48,3.48-3.5Z"/>
      <path class="cls-2" d="m888.45,340.25c-.02-1.97,1.55-3.57,3.51-3.57,1.91,0,3.5,1.56,3.53,3.47.03,1.94-1.59,3.58-3.53,3.57-1.92,0-3.49-1.56-3.51-3.47Z"/>
      <path class="cls-2" d="m909.64,319.05c1.92.02,3.48,1.59,3.48,3.5,0,1.94-1.62,3.56-3.56,3.54-1.91-.02-3.47-1.61-3.48-3.52,0-1.96,1.59-3.54,3.56-3.53Z"/>
      <path class="cls-2" d="m909.64,336.68c1.91.02,3.48,1.6,3.48,3.51,0,1.95-1.62,3.56-3.57,3.53-1.91-.02-3.47-1.6-3.48-3.51,0-1.96,1.6-3.55,3.56-3.53Z"/>
      <path class="cls-2" d="m891.93,319.05c1.96-.02,3.57,1.58,3.57,3.53,0,1.9-1.59,3.49-3.49,3.51-1.94.02-3.56-1.59-3.55-3.54,0-1.93,1.55-3.48,3.48-3.5Z"/>
    </g>
    <g>
      <path class="cls-2" d="m976.61,375.32c-.02-1.97,1.55-3.57,3.51-3.57,1.91,0,3.5,1.56,3.53,3.47.03,1.94-1.59,3.58-3.53,3.57-1.92,0-3.49-1.56-3.51-3.47Z"/>
      <path class="cls-2" d="m958.98,357.59c.02-1.93,1.57-3.47,3.5-3.48,1.95,0,3.57,1.61,3.54,3.55-.02,1.9-1.62,3.48-3.52,3.49-1.95,0-3.54-1.6-3.52-3.57Z"/>
      <path class="cls-2" d="m923.72,375.24c.01-1.94,1.54-3.48,3.47-3.5,1.95-.01,3.58,1.6,3.56,3.54-.01,1.9-1.6,3.48-3.5,3.5-1.96.02-3.54-1.57-3.53-3.55Z"/>
      <path class="cls-2" d="m997.8,354.12c1.92.02,3.48,1.59,3.48,3.5,0,1.94-1.62,3.56-3.56,3.54-1.91-.02-3.47-1.61-3.48-3.52,0-1.96,1.59-3.54,3.56-3.53Z"/>
      <path class="cls-2" d="m958.98,375.22c.02-1.92,1.58-3.47,3.5-3.47,1.95,0,3.56,1.62,3.53,3.57-.03,1.9-1.62,3.48-3.52,3.48-1.96,0-3.54-1.6-3.51-3.57Z"/>
      <path class="cls-2" d="m941.35,357.64c0-1.98,1.57-3.54,3.55-3.52,1.91.02,3.48,1.6,3.48,3.51,0,1.93-1.64,3.56-3.57,3.54-1.92-.03-3.46-1.6-3.46-3.52Z"/>
      <path class="cls-2" d="m941.35,375.23c.02-1.93,1.56-3.47,3.49-3.48,1.95,0,3.57,1.62,3.54,3.56-.02,1.9-1.61,3.48-3.52,3.49-1.96,0-3.54-1.59-3.52-3.56Z"/>
      <path class="cls-2" d="m927.2,354.12c1.95-.02,3.57,1.6,3.56,3.54-.01,1.9-1.6,3.49-3.5,3.51-1.91.02-3.5-1.53-3.53-3.45-.03-1.99,1.5-3.58,3.47-3.6Z"/>
      <path class="cls-2" d="m997.8,371.75c1.91.02,3.48,1.6,3.48,3.51,0,1.95-1.62,3.56-3.57,3.53-1.91-.02-3.47-1.6-3.48-3.51,0-1.96,1.6-3.55,3.56-3.53Z"/>
      <path class="cls-2" d="m980.09,354.12c1.96-.02,3.57,1.58,3.57,3.53,0,1.9-1.59,3.49-3.49,3.51-1.94.02-3.56-1.59-3.55-3.54,0-1.93,1.55-3.48,3.48-3.5Z"/>
      <path class="cls-2" d="m1064.77,375.29c-.02-1.97,1.55-3.57,3.51-3.57,1.91,0,3.5,1.56,3.53,3.47.03,1.94-1.59,3.58-3.53,3.57-1.92,0-3.49-1.56-3.51-3.47Z"/>
      <path class="cls-2" d="m1047.14,357.57c.02-1.93,1.57-3.47,3.5-3.48,1.95,0,3.57,1.61,3.54,3.55-.02,1.9-1.62,3.48-3.52,3.49-1.95,0-3.54-1.6-3.52-3.57Z"/>
      <path class="cls-2" d="m1011.88,375.22c.01-1.94,1.54-3.48,3.47-3.5,1.95-.01,3.58,1.6,3.56,3.54-.01,1.9-1.6,3.48-3.5,3.5-1.96.02-3.54-1.57-3.53-3.55Z"/>
      <path class="cls-2" d="m1085.96,354.09c1.92.02,3.48,1.59,3.48,3.5,0,1.94-1.62,3.56-3.56,3.54-1.91-.02-3.47-1.61-3.48-3.52,0-1.96,1.59-3.54,3.56-3.53Z"/>
      <path class="cls-2" d="m1047.14,375.19c.02-1.92,1.58-3.47,3.5-3.47,1.95,0,3.56,1.62,3.53,3.57-.03,1.9-1.62,3.48-3.52,3.48-1.96,0-3.54-1.6-3.51-3.57Z"/>
      <path class="cls-2" d="m1029.51,357.61c0-1.98,1.57-3.54,3.55-3.52,1.91.02,3.48,1.6,3.48,3.51,0,1.93-1.64,3.56-3.57,3.54-1.92-.03-3.46-1.6-3.46-3.52Z"/>
      <path class="cls-2" d="m1029.51,375.2c.02-1.93,1.56-3.47,3.49-3.48,1.95,0,3.57,1.62,3.54,3.56-.02,1.9-1.61,3.48-3.52,3.49-1.96,0-3.54-1.59-3.52-3.56Z"/>
      <path class="cls-2" d="m1015.35,354.09c1.95-.02,3.57,1.6,3.56,3.54-.01,1.9-1.6,3.49-3.5,3.51-1.91.02-3.5-1.53-3.53-3.45-.03-1.99,1.5-3.58,3.47-3.6Z"/>
      <path class="cls-2" d="m1085.96,371.72c1.91.02,3.48,1.6,3.48,3.51,0,1.95-1.62,3.56-3.57,3.53-1.91-.02-3.47-1.6-3.48-3.51,0-1.96,1.6-3.55,3.56-3.53Z"/>
      <path class="cls-2" d="m1068.24,354.09c1.96-.02,3.57,1.58,3.57,3.53,0,1.9-1.59,3.49-3.49,3.51-1.94.02-3.56-1.59-3.55-3.54,0-1.93,1.55-3.48,3.48-3.5Z"/>
      <path class="cls-2" d="m888.45,375.31c-.02-1.97,1.55-3.57,3.51-3.57,1.91,0,3.5,1.56,3.53,3.47.03,1.94-1.59,3.58-3.53,3.57-1.92,0-3.49-1.56-3.51-3.47Z"/>
      <path class="cls-2" d="m909.64,354.11c1.92.02,3.48,1.59,3.48,3.5,0,1.94-1.62,3.56-3.56,3.54-1.91-.02-3.47-1.61-3.48-3.52,0-1.96,1.59-3.54,3.56-3.53Z"/>
      <path class="cls-2" d="m909.64,371.74c1.91.02,3.48,1.6,3.48,3.51,0,1.95-1.62,3.56-3.57,3.53-1.91-.02-3.47-1.6-3.48-3.51,0-1.96,1.6-3.55,3.56-3.53Z"/>
      <path class="cls-2" d="m891.93,354.11c1.96-.02,3.57,1.58,3.57,3.53,0,1.9-1.59,3.49-3.49,3.51-1.94.02-3.56-1.59-3.55-3.54,0-1.93,1.55-3.48,3.48-3.5Z"/>
    </g>
    <path class="cls-2" d="m888.45,269.71c-.02-1.98,1.53-3.55,3.52-3.55,1.93,0,3.5,1.54,3.53,3.45.03,1.93-1.6,3.58-3.53,3.58-1.9,0-3.49-1.57-3.51-3.48Z"/>
    <path class="cls-2" d="m909.56,213.25c1.98-.02,3.57,1.55,3.57,3.51,0,1.91-1.57,3.48-3.48,3.51-1.95.03-3.57-1.57-3.56-3.53,0-1.93,1.55-3.47,3.48-3.49Z"/>
    <path class="cls-2" d="m891.94,248.52c1.97-.01,3.57,1.57,3.55,3.53-.02,1.9-1.6,3.48-3.5,3.5-1.94.02-3.55-1.6-3.54-3.56.01-1.93,1.55-3.46,3.49-3.47Z"/>
  </g>
  <g>
    <path class="cls-1" d="m1600.59,745.8c1.96-.01,3.57,1.59,3.55,3.53-.02,1.9-1.6,3.49-3.5,3.51-1.94.02-3.55-1.6-3.54-3.55.01-1.93,1.56-3.47,3.49-3.49Z"/>
    <path class="cls-1" d="m1544.21,749.36c-.02-1.99,1.52-3.56,3.51-3.56,1.92,0,3.49,1.55,3.53,3.46.03,1.92-1.6,3.58-3.53,3.58-1.92,0-3.48-1.56-3.5-3.48Z"/>
    <path class="cls-1" d="m1544.21,713.99c.02-1.98,1.6-3.5,3.6-3.45,1.91.04,3.46,1.65,3.43,3.55-.03,1.9-1.64,3.48-3.53,3.48-1.95,0-3.53-1.61-3.51-3.58Z"/>
    <path class="cls-1" d="m1582.94,657.64c1.97-.02,3.58,1.56,3.57,3.52,0,1.9-1.58,3.48-3.49,3.51-1.96.02-3.56-1.57-3.55-3.53,0-1.93,1.53-3.47,3.47-3.49Z"/>
    <path class="cls-1" d="m1614.73,714.09c-.03-1.93,1.49-3.51,3.42-3.55,1.99-.04,3.6,1.49,3.63,3.45.03,1.94-1.59,3.58-3.53,3.58-1.9,0-3.49-1.57-3.51-3.48Z"/>
    <path class="cls-1" d="m1600.64,629.37c-1.94.01-3.5-1.51-3.54-3.43-.04-1.97,1.52-3.57,3.49-3.59,1.96-.02,3.57,1.59,3.55,3.54-.02,1.92-1.58,3.47-3.5,3.48Z"/>
    <path class="cls-1" d="m1618.21,629.38c-1.97-.02-3.52-1.63-3.48-3.6.05-1.92,1.63-3.44,3.56-3.42,1.92.02,3.48,1.59,3.48,3.5,0,1.96-1.6,3.54-3.57,3.52Z"/>
    <path class="cls-1" d="m1579.47,714c.02-1.98,1.61-3.5,3.6-3.46,1.92.04,3.46,1.63,3.44,3.54-.03,1.9-1.62,3.48-3.52,3.49-1.94,0-3.54-1.61-3.52-3.57Z"/>
    <path class="cls-1" d="m1597.1,643.53c-.01-1.97,1.57-3.54,3.54-3.53,1.93.01,3.49,1.56,3.5,3.48.01,1.95-1.6,3.55-3.56,3.53-1.93-.02-3.48-1.56-3.49-3.49Z"/>
    <path class="cls-1" d="m1618.21,647.01c-1.97-.02-3.53-1.63-3.48-3.6.05-1.92,1.62-3.44,3.56-3.42,1.97.02,3.54,1.63,3.48,3.59-.05,1.92-1.64,3.44-3.56,3.42Z"/>
    <path class="cls-1" d="m1600.6,675.27c1.98,0,3.57,1.58,3.54,3.54-.03,1.91-1.61,3.48-3.51,3.49-1.95,0-3.54-1.6-3.53-3.56.02-1.93,1.56-3.46,3.5-3.46Z"/>
    <path class="cls-1" d="m1614.73,678.72c.03-1.97,1.63-3.49,3.62-3.45,1.92.05,3.45,1.63,3.42,3.55-.03,1.91-1.62,3.47-3.52,3.47-1.95,0-3.54-1.62-3.52-3.58Z"/>
    <path class="cls-1" d="m1597.1,661.13c0-1.93,1.54-3.47,3.47-3.49,1.98-.02,3.58,1.55,3.57,3.51,0,1.91-1.57,3.48-3.49,3.51-1.96.03-3.56-1.56-3.56-3.53Z"/>
    <path class="cls-1" d="m1579.47,678.77c0-1.98,1.58-3.52,3.57-3.49,1.92.02,3.48,1.59,3.47,3.51,0,1.9-1.58,3.49-3.49,3.52-1.95.03-3.56-1.57-3.56-3.53Z"/>
    <path class="cls-1" d="m1618.26,692.9c1.93,0,3.49,1.54,3.51,3.46.02,1.94-1.6,3.58-3.54,3.57-1.91-.01-3.49-1.58-3.51-3.49-.02-1.97,1.55-3.55,3.53-3.54Z"/>
    <path class="cls-1" d="m1561.84,731.71c-.02-1.99,1.53-3.55,3.52-3.54,1.92,0,3.49,1.56,3.51,3.47.02,1.93-1.61,3.58-3.54,3.57-1.91-.01-3.48-1.57-3.49-3.49Z"/>
    <path class="cls-1" d="m1582.93,629.38c-1.98-.03-3.51-1.62-3.46-3.61.04-1.92,1.63-3.44,3.56-3.41,1.92.03,3.48,1.6,3.48,3.51,0,1.95-1.61,3.54-3.58,3.51Z"/>
    <path class="cls-1" d="m1579.47,731.68c0-1.98,1.57-3.53,3.56-3.51,1.92.02,3.48,1.59,3.48,3.5,0,1.93-1.65,3.57-3.58,3.53-1.91-.03-3.46-1.61-3.46-3.53Z"/>
    <path class="cls-1" d="m1597.1,731.68c0-1.97,1.57-3.53,3.56-3.51,1.92.02,3.48,1.58,3.48,3.5,0,1.94-1.64,3.57-3.57,3.54-1.91-.03-3.47-1.61-3.47-3.52Z"/>
    <path class="cls-1" d="m1614.73,731.64c.02-1.97,1.62-3.51,3.61-3.47,1.92.04,3.46,1.62,3.44,3.54-.02,1.9-1.61,3.48-3.51,3.49-1.94,0-3.55-1.62-3.54-3.57Z"/>
    <path class="cls-1" d="m1583.02,647.01c-1.93.02-3.51-1.49-3.55-3.42-.04-1.99,1.49-3.57,3.47-3.6,1.97-.02,3.58,1.56,3.57,3.51,0,1.91-1.57,3.48-3.49,3.5Z"/>
    <path class="cls-1" d="m1561.84,749.33c0-1.99,1.55-3.55,3.54-3.53,1.92.01,3.48,1.58,3.5,3.49.02,1.93-1.63,3.57-3.56,3.55-1.91-.02-3.47-1.59-3.48-3.51Z"/>
    <path class="cls-1" d="m1614.73,749.27c.02-1.96,1.63-3.51,3.61-3.47,1.91.04,3.45,1.63,3.43,3.55-.02,1.9-1.61,3.48-3.51,3.49-1.94,0-3.55-1.62-3.53-3.57Z"/>
    <path class="cls-1" d="m1561.84,661.09c.02-1.94,1.56-3.45,3.51-3.45,1.97,0,3.56,1.61,3.53,3.55-.04,1.91-1.62,3.47-3.53,3.47-1.96,0-3.53-1.59-3.5-3.57Z"/>
    <path class="cls-1" d="m1565.35,629.38c-1.94,0-3.49-1.52-3.51-3.45-.02-1.98,1.53-3.57,3.5-3.57,1.92,0,3.5,1.55,3.53,3.46.04,1.95-1.56,3.56-3.52,3.56Z"/>
    <path class="cls-1" d="m1579.47,696.44c-.02-1.94,1.49-3.5,3.42-3.54,1.98-.04,3.59,1.51,3.62,3.47.02,1.93-1.62,3.58-3.55,3.56-1.91-.01-3.48-1.58-3.49-3.49Z"/>
    <path class="cls-1" d="m1561.84,714c.02-1.98,1.6-3.5,3.6-3.46,1.91.04,3.46,1.64,3.44,3.54-.03,1.9-1.62,3.48-3.52,3.49-1.95,0-3.54-1.6-3.52-3.57Z"/>
    <path class="cls-1" d="m1561.84,678.8c-.01-1.95,1.49-3.49,3.43-3.53,1.98-.03,3.59,1.52,3.61,3.48.01,1.93-1.62,3.57-3.56,3.55-1.92-.02-3.47-1.57-3.48-3.5Z"/>
    <path class="cls-1" d="m1561.84,643.52c0-1.98,1.56-3.54,3.54-3.52,1.92.02,3.48,1.57,3.5,3.49.01,1.94-1.61,3.55-3.57,3.53-1.93-.02-3.46-1.56-3.47-3.5Z"/>
    <path class="cls-1" d="m1544.21,731.73c-.02-1.99,1.52-3.56,3.5-3.56,1.92,0,3.5,1.54,3.53,3.46.03,1.92-1.6,3.58-3.53,3.58-1.91,0-3.48-1.56-3.5-3.48Z"/>
    <path class="cls-1" d="m1579.47,749.31c0-1.97,1.58-3.53,3.56-3.51,1.91.02,3.48,1.61,3.47,3.51,0,1.9-1.58,3.5-3.48,3.53-1.94.03-3.56-1.57-3.56-3.53Z"/>
    <path class="cls-1" d="m1597.1,714.09c-.02-1.98,1.53-3.55,3.52-3.55,1.93,0,3.5,1.54,3.53,3.45.03,1.93-1.6,3.58-3.53,3.58-1.9,0-3.49-1.57-3.51-3.48Z"/>
    <path class="cls-1" d="m1618.21,657.64c1.98-.02,3.57,1.55,3.57,3.51,0,1.91-1.57,3.48-3.48,3.51-1.95.03-3.57-1.57-3.56-3.53,0-1.93,1.55-3.47,3.48-3.49Z"/>
    <path class="cls-1" d="m1544.21,661.16c-.01-1.99,1.54-3.54,3.53-3.53,1.93.01,3.49,1.57,3.51,3.48.01,1.94-1.62,3.56-3.56,3.55-1.92-.02-3.47-1.57-3.48-3.5Z"/>
    <path class="cls-1" d="m1544.21,696.42c0-1.99,1.55-3.54,3.54-3.52,1.92.02,3.49,1.58,3.5,3.49.01,1.92-1.65,3.57-3.57,3.55-1.92-.02-3.46-1.59-3.47-3.51Z"/>
    <path class="cls-1" d="m1561.84,696.37c.01-1.98,1.6-3.51,3.59-3.47,1.92.04,3.47,1.63,3.44,3.54-.02,1.9-1.61,3.48-3.51,3.5-1.95.01-3.54-1.6-3.52-3.56Z"/>
    <path class="cls-1" d="m1600.59,692.9c1.97-.01,3.57,1.57,3.55,3.53-.02,1.9-1.6,3.48-3.5,3.5-1.94.02-3.55-1.6-3.54-3.56.01-1.93,1.55-3.46,3.49-3.47Z"/>
    <path class="cls-1" d="m1544.21,678.77c0-1.99,1.56-3.52,3.55-3.5,1.92.02,3.48,1.59,3.48,3.5,0,1.93-1.65,3.56-3.58,3.53-1.92-.03-3.45-1.6-3.45-3.52Z"/>
    <path class="cls-1" d="m1547.73,629.38c-1.94,0-3.49-1.5-3.52-3.44-.03-1.99,1.51-3.57,3.49-3.58,1.95,0,3.58,1.62,3.55,3.55-.03,1.92-1.59,3.46-3.52,3.47Z"/>
    <path class="cls-1" d="m1544.21,643.49c0-1.94,1.53-3.47,3.47-3.49,1.96-.02,3.58,1.58,3.57,3.52-.01,1.95-1.64,3.53-3.6,3.5-1.94-.04-3.45-1.59-3.44-3.53Z"/>
    <path class="cls-1" d="m1688.74,745.77c1.96-.01,3.57,1.59,3.55,3.53-.02,1.9-1.6,3.49-3.5,3.51-1.94.02-3.55-1.6-3.54-3.55.01-1.93,1.56-3.47,3.49-3.49Z"/>
    <path class="cls-1" d="m1632.36,749.33c-.02-1.99,1.52-3.56,3.51-3.56,1.92,0,3.49,1.55,3.53,3.46.03,1.92-1.6,3.58-3.53,3.58-1.92,0-3.48-1.56-3.5-3.48Z"/>
    <path class="cls-1" d="m1632.36,713.97c.02-1.98,1.6-3.5,3.6-3.45,1.91.04,3.46,1.65,3.43,3.55-.03,1.9-1.64,3.48-3.53,3.48-1.95,0-3.53-1.61-3.51-3.58Z"/>
    <path class="cls-1" d="m1671.09,657.61c1.97-.02,3.58,1.56,3.57,3.52,0,1.9-1.58,3.48-3.49,3.51-1.96.02-3.56-1.57-3.55-3.53,0-1.93,1.53-3.47,3.47-3.49Z"/>
    <path class="cls-1" d="m1702.88,714.06c-.03-1.93,1.49-3.51,3.42-3.55,1.99-.04,3.6,1.49,3.63,3.45.03,1.94-1.59,3.58-3.53,3.58-1.9,0-3.49-1.57-3.51-3.48Z"/>
    <path class="cls-1" d="m1688.79,629.35c-1.94.01-3.5-1.51-3.54-3.43-.04-1.97,1.52-3.57,3.49-3.59,1.96-.02,3.57,1.59,3.55,3.54-.02,1.92-1.58,3.47-3.5,3.48Z"/>
    <path class="cls-1" d="m1706.36,629.35c-1.97-.02-3.52-1.63-3.48-3.6.05-1.92,1.63-3.44,3.56-3.42,1.92.02,3.48,1.59,3.48,3.5,0,1.96-1.6,3.54-3.57,3.52Z"/>
    <path class="cls-1" d="m1667.62,713.97c.02-1.98,1.61-3.5,3.6-3.46,1.92.04,3.46,1.63,3.44,3.54-.03,1.9-1.62,3.48-3.52,3.49-1.94,0-3.54-1.61-3.52-3.57Z"/>
    <path class="cls-1" d="m1685.25,643.5c-.01-1.97,1.57-3.54,3.54-3.53,1.93.01,3.49,1.56,3.5,3.48.01,1.95-1.6,3.55-3.56,3.53-1.93-.02-3.48-1.56-3.49-3.49Z"/>
    <path class="cls-1" d="m1706.36,646.99c-1.97-.02-3.53-1.63-3.48-3.6.05-1.92,1.62-3.44,3.56-3.42,1.97.02,3.54,1.63,3.48,3.59-.05,1.92-1.64,3.44-3.56,3.42Z"/>
    <path class="cls-1" d="m1688.75,675.24c1.98,0,3.57,1.58,3.54,3.54-.03,1.91-1.61,3.48-3.51,3.49-1.95,0-3.54-1.6-3.53-3.56.02-1.93,1.56-3.46,3.5-3.46Z"/>
    <path class="cls-1" d="m1702.88,678.69c.03-1.97,1.63-3.49,3.62-3.45,1.92.05,3.45,1.63,3.42,3.55-.03,1.91-1.62,3.47-3.52,3.47-1.95,0-3.54-1.62-3.52-3.58Z"/>
    <path class="cls-1" d="m1685.25,661.1c0-1.93,1.54-3.47,3.47-3.49,1.98-.02,3.58,1.55,3.57,3.51,0,1.91-1.57,3.48-3.49,3.51-1.96.03-3.56-1.56-3.56-3.53Z"/>
    <path class="cls-1" d="m1667.62,678.74c0-1.98,1.58-3.52,3.57-3.49,1.92.02,3.48,1.59,3.47,3.51,0,1.9-1.58,3.49-3.49,3.52-1.95.03-3.56-1.57-3.56-3.53Z"/>
    <path class="cls-1" d="m1706.41,692.88c1.93,0,3.49,1.54,3.51,3.46.02,1.94-1.6,3.58-3.54,3.57-1.91-.01-3.49-1.58-3.51-3.49-.02-1.97,1.55-3.55,3.53-3.54Z"/>
    <path class="cls-1" d="m1649.99,731.68c-.02-1.99,1.53-3.55,3.52-3.54,1.92,0,3.49,1.56,3.51,3.47.02,1.93-1.61,3.58-3.54,3.57-1.91-.01-3.48-1.57-3.49-3.49Z"/>
    <path class="cls-1" d="m1671.08,629.35c-1.98-.03-3.51-1.62-3.46-3.61.04-1.92,1.63-3.44,3.56-3.41,1.92.03,3.48,1.6,3.48,3.51,0,1.95-1.61,3.54-3.58,3.51Z"/>
    <path class="cls-1" d="m1667.62,731.65c0-1.98,1.57-3.53,3.56-3.51,1.92.02,3.48,1.59,3.48,3.5,0,1.93-1.65,3.57-3.58,3.53-1.91-.03-3.46-1.61-3.46-3.53Z"/>
    <path class="cls-1" d="m1685.25,731.66c0-1.97,1.57-3.53,3.56-3.51,1.92.02,3.48,1.58,3.48,3.5,0,1.94-1.64,3.57-3.57,3.54-1.91-.03-3.47-1.61-3.47-3.52Z"/>
    <path class="cls-1" d="m1702.88,731.61c.02-1.97,1.62-3.51,3.61-3.47,1.92.04,3.46,1.62,3.44,3.54-.02,1.9-1.61,3.48-3.51,3.49-1.94,0-3.55-1.62-3.54-3.57Z"/>
    <path class="cls-1" d="m1671.17,646.99c-1.93.02-3.51-1.49-3.55-3.42-.04-1.99,1.49-3.57,3.47-3.6,1.97-.02,3.58,1.56,3.57,3.51,0,1.91-1.57,3.48-3.49,3.5Z"/>
    <path class="cls-1" d="m1649.99,749.3c0-1.99,1.55-3.55,3.54-3.53,1.92.01,3.48,1.58,3.5,3.49.02,1.93-1.63,3.57-3.56,3.55-1.91-.02-3.47-1.59-3.48-3.51Z"/>
    <path class="cls-1" d="m1702.88,749.24c.02-1.96,1.63-3.51,3.61-3.47,1.91.04,3.45,1.63,3.43,3.55-.02,1.9-1.61,3.48-3.51,3.49-1.94,0-3.55-1.62-3.53-3.57Z"/>
    <path class="cls-1" d="m1649.99,661.06c.02-1.94,1.56-3.45,3.51-3.45,1.97,0,3.56,1.61,3.53,3.55-.04,1.91-1.62,3.47-3.53,3.47-1.96,0-3.53-1.59-3.5-3.57Z"/>
    <path class="cls-1" d="m1653.5,629.35c-1.94,0-3.49-1.52-3.51-3.45-.02-1.98,1.53-3.57,3.5-3.57,1.92,0,3.5,1.55,3.53,3.46.04,1.95-1.56,3.56-3.52,3.56Z"/>
    <path class="cls-1" d="m1667.62,696.41c-.02-1.94,1.49-3.5,3.42-3.54,1.98-.04,3.59,1.51,3.62,3.47.02,1.93-1.62,3.58-3.55,3.56-1.91-.01-3.48-1.58-3.49-3.49Z"/>
    <path class="cls-1" d="m1649.99,713.97c.02-1.98,1.6-3.5,3.6-3.46,1.91.04,3.46,1.64,3.44,3.54-.03,1.9-1.62,3.48-3.52,3.49-1.95,0-3.54-1.6-3.52-3.57Z"/>
    <path class="cls-1" d="m1649.99,678.77c-.01-1.95,1.49-3.49,3.43-3.53,1.98-.03,3.59,1.52,3.61,3.48.01,1.93-1.62,3.57-3.56,3.55-1.92-.02-3.47-1.57-3.48-3.5Z"/>
    <path class="cls-1" d="m1649.99,643.49c0-1.98,1.56-3.54,3.54-3.52,1.92.02,3.48,1.57,3.5,3.49.01,1.94-1.61,3.55-3.57,3.53-1.93-.02-3.46-1.56-3.47-3.5Z"/>
    <path class="cls-1" d="m1632.36,731.7c-.02-1.99,1.52-3.56,3.5-3.56,1.92,0,3.5,1.54,3.53,3.46.03,1.92-1.6,3.58-3.53,3.58-1.91,0-3.48-1.56-3.5-3.48Z"/>
    <path class="cls-1" d="m1667.62,749.28c0-1.97,1.58-3.53,3.56-3.51,1.91.02,3.48,1.61,3.47,3.51,0,1.9-1.58,3.5-3.48,3.53-1.94.03-3.56-1.57-3.56-3.53Z"/>
    <path class="cls-1" d="m1685.25,714.06c-.02-1.98,1.53-3.55,3.52-3.55,1.93,0,3.5,1.54,3.53,3.45.03,1.93-1.6,3.58-3.53,3.58-1.9,0-3.49-1.57-3.51-3.48Z"/>
    <path class="cls-1" d="m1706.36,657.61c1.98-.02,3.57,1.55,3.57,3.51,0,1.91-1.57,3.48-3.48,3.51-1.95.03-3.57-1.57-3.56-3.53,0-1.93,1.55-3.47,3.48-3.49Z"/>
    <path class="cls-1" d="m1632.36,661.13c-.01-1.99,1.54-3.54,3.53-3.53,1.93.01,3.49,1.57,3.51,3.48.01,1.94-1.62,3.56-3.56,3.55-1.92-.02-3.47-1.57-3.48-3.5Z"/>
    <path class="cls-1" d="m1632.36,696.4c0-1.99,1.55-3.54,3.54-3.52,1.92.02,3.49,1.58,3.5,3.49.01,1.92-1.65,3.57-3.57,3.55-1.92-.02-3.46-1.59-3.47-3.51Z"/>
    <path class="cls-1" d="m1649.99,696.35c.01-1.98,1.6-3.51,3.59-3.47,1.92.04,3.47,1.63,3.44,3.54-.02,1.9-1.61,3.48-3.51,3.5-1.95.01-3.54-1.6-3.52-3.56Z"/>
    <path class="cls-1" d="m1688.74,692.88c1.97-.01,3.57,1.57,3.55,3.53-.02,1.9-1.6,3.48-3.5,3.5-1.94.02-3.55-1.6-3.54-3.56.01-1.93,1.55-3.46,3.49-3.47Z"/>
    <path class="cls-1" d="m1632.36,678.75c0-1.99,1.56-3.52,3.55-3.5,1.92.02,3.48,1.59,3.48,3.5,0,1.93-1.65,3.56-3.58,3.53-1.92-.03-3.45-1.6-3.45-3.52Z"/>
    <path class="cls-1" d="m1635.88,629.35c-1.94,0-3.49-1.5-3.52-3.44-.03-1.99,1.51-3.57,3.49-3.58,1.95,0,3.58,1.62,3.55,3.55-.03,1.92-1.59,3.46-3.52,3.47Z"/>
    <path class="cls-1" d="m1632.36,643.46c0-1.94,1.53-3.47,3.47-3.49,1.96-.02,3.58,1.58,3.57,3.52-.01,1.95-1.64,3.53-3.6,3.5-1.94-.04-3.45-1.59-3.44-3.53Z"/>
    <path class="cls-1" d="m1512.42,745.79c1.96-.01,3.57,1.59,3.55,3.53-.02,1.9-1.6,3.49-3.5,3.51-1.94.02-3.55-1.6-3.54-3.55.01-1.93,1.56-3.47,3.49-3.49Z"/>
    <path class="cls-1" d="m1526.57,714.09c-.03-1.93,1.49-3.51,3.42-3.55,1.99-.04,3.6,1.49,3.63,3.45.03,1.94-1.59,3.58-3.53,3.58-1.9,0-3.49-1.57-3.51-3.48Z"/>
    <path class="cls-1" d="m1512.48,629.37c-1.94.01-3.5-1.51-3.54-3.43-.04-1.97,1.52-3.57,3.49-3.59,1.96-.02,3.57,1.59,3.55,3.54-.02,1.92-1.58,3.47-3.5,3.48Z"/>
    <path class="cls-1" d="m1530.04,629.37c-1.97-.02-3.52-1.63-3.48-3.6.05-1.92,1.63-3.44,3.56-3.42,1.92.02,3.48,1.59,3.48,3.5,0,1.96-1.6,3.54-3.57,3.52Z"/>
    <path class="cls-1" d="m1508.94,643.52c-.01-1.97,1.57-3.54,3.54-3.53,1.93.01,3.49,1.56,3.5,3.48.01,1.95-1.6,3.55-3.56,3.53-1.93-.02-3.48-1.56-3.49-3.49Z"/>
    <path class="cls-1" d="m1530.05,647.01c-1.97-.02-3.53-1.63-3.48-3.6.05-1.92,1.62-3.44,3.56-3.42,1.97.02,3.54,1.63,3.48,3.59-.05,1.92-1.64,3.44-3.56,3.42Z"/>
    <path class="cls-1" d="m1512.44,675.27c1.98,0,3.57,1.58,3.54,3.54-.03,1.91-1.61,3.48-3.51,3.49-1.95,0-3.54-1.6-3.53-3.56.02-1.93,1.56-3.46,3.5-3.46Z"/>
    <path class="cls-1" d="m1526.57,678.72c.03-1.97,1.63-3.49,3.62-3.45,1.92.05,3.45,1.63,3.42,3.55-.03,1.91-1.62,3.47-3.52,3.47-1.95,0-3.54-1.62-3.52-3.58Z"/>
    <path class="cls-1" d="m1508.94,661.13c0-1.93,1.54-3.47,3.47-3.49,1.98-.02,3.58,1.55,3.57,3.51,0,1.91-1.57,3.48-3.49,3.51-1.96.03-3.56-1.56-3.56-3.53Z"/>
    <path class="cls-1" d="m1530.1,692.9c1.93,0,3.49,1.54,3.51,3.46.02,1.94-1.6,3.58-3.54,3.57-1.91-.01-3.49-1.58-3.51-3.49-.02-1.97,1.55-3.55,3.53-3.54Z"/>
    <path class="cls-1" d="m1508.94,731.68c0-1.97,1.57-3.53,3.56-3.51,1.92.02,3.48,1.58,3.48,3.5,0,1.94-1.64,3.57-3.57,3.54-1.91-.03-3.47-1.61-3.47-3.52Z"/>
    <path class="cls-1" d="m1526.57,731.63c.02-1.97,1.62-3.51,3.61-3.47,1.92.04,3.46,1.62,3.44,3.54-.02,1.9-1.61,3.48-3.51,3.49-1.94,0-3.55-1.62-3.54-3.57Z"/>
    <path class="cls-1" d="m1526.57,749.26c.02-1.96,1.63-3.51,3.61-3.47,1.91.04,3.45,1.63,3.43,3.55-.02,1.9-1.61,3.48-3.51,3.49-1.94,0-3.55-1.62-3.53-3.57Z"/>
    <g>
      <path class="cls-1" d="m1597.1,784.63c-.02-1.97,1.55-3.57,3.51-3.57,1.91,0,3.5,1.56,3.53,3.47.03,1.94-1.59,3.58-3.53,3.57-1.92,0-3.49-1.56-3.51-3.47Z"/>
      <path class="cls-1" d="m1579.47,766.91c.02-1.93,1.57-3.47,3.5-3.48,1.95,0,3.57,1.61,3.54,3.55-.02,1.9-1.62,3.48-3.52,3.49-1.95,0-3.54-1.6-3.52-3.57Z"/>
      <path class="cls-1" d="m1544.21,784.56c.01-1.94,1.54-3.48,3.47-3.5,1.95-.01,3.58,1.6,3.56,3.54-.01,1.9-1.6,3.48-3.5,3.5-1.96.02-3.54-1.57-3.53-3.55Z"/>
      <path class="cls-1" d="m1618.29,763.43c1.92.02,3.48,1.59,3.48,3.5,0,1.94-1.62,3.56-3.56,3.54-1.91-.02-3.47-1.61-3.48-3.52,0-1.96,1.59-3.54,3.56-3.53Z"/>
      <path class="cls-1" d="m1579.47,784.53c.02-1.92,1.58-3.47,3.5-3.47,1.95,0,3.56,1.62,3.53,3.57-.03,1.9-1.62,3.48-3.52,3.48-1.96,0-3.54-1.6-3.51-3.57Z"/>
      <path class="cls-1" d="m1561.84,766.95c0-1.98,1.57-3.54,3.55-3.52,1.91.02,3.48,1.6,3.48,3.51,0,1.93-1.64,3.56-3.57,3.54-1.92-.03-3.46-1.6-3.46-3.52Z"/>
      <path class="cls-1" d="m1561.84,784.54c.02-1.93,1.56-3.47,3.49-3.48,1.95,0,3.57,1.62,3.54,3.56-.02,1.9-1.61,3.48-3.52,3.49-1.96,0-3.54-1.59-3.52-3.56Z"/>
      <path class="cls-1" d="m1547.68,763.43c1.95-.02,3.57,1.6,3.56,3.54-.01,1.9-1.6,3.49-3.5,3.51-1.91.02-3.5-1.53-3.53-3.45-.03-1.99,1.5-3.58,3.47-3.6Z"/>
      <path class="cls-1" d="m1618.29,781.06c1.91.02,3.48,1.6,3.48,3.51,0,1.95-1.62,3.56-3.57,3.53-1.91-.02-3.47-1.6-3.48-3.51,0-1.96,1.6-3.55,3.56-3.53Z"/>
      <path class="cls-1" d="m1600.57,763.43c1.96-.02,3.57,1.58,3.57,3.53,0,1.9-1.59,3.49-3.49,3.51-1.94.02-3.56-1.59-3.55-3.54,0-1.93,1.55-3.48,3.48-3.5Z"/>
      <path class="cls-1" d="m1685.25,784.6c-.02-1.97,1.55-3.57,3.51-3.57,1.91,0,3.5,1.56,3.53,3.47.03,1.94-1.59,3.58-3.53,3.57-1.92,0-3.49-1.56-3.51-3.47Z"/>
      <path class="cls-1" d="m1667.62,766.88c.02-1.93,1.57-3.47,3.5-3.48,1.95,0,3.57,1.61,3.54,3.55-.02,1.9-1.62,3.48-3.52,3.49-1.95,0-3.54-1.6-3.52-3.57Z"/>
      <path class="cls-1" d="m1632.36,784.53c.01-1.94,1.54-3.48,3.47-3.5,1.95-.01,3.58,1.6,3.56,3.54-.01,1.9-1.6,3.48-3.5,3.5-1.96.02-3.54-1.57-3.53-3.55Z"/>
      <path class="cls-1" d="m1706.44,763.4c1.92.02,3.48,1.59,3.48,3.5,0,1.94-1.62,3.56-3.56,3.54-1.91-.02-3.47-1.61-3.48-3.52,0-1.96,1.59-3.54,3.56-3.53Z"/>
      <path class="cls-1" d="m1667.62,784.5c.02-1.92,1.58-3.47,3.5-3.47,1.95,0,3.56,1.62,3.53,3.57-.03,1.9-1.62,3.48-3.52,3.48-1.96,0-3.54-1.6-3.51-3.57Z"/>
      <path class="cls-1" d="m1649.99,766.92c0-1.98,1.57-3.54,3.55-3.52,1.91.02,3.48,1.6,3.48,3.51,0,1.93-1.64,3.56-3.57,3.54-1.92-.03-3.46-1.6-3.46-3.52Z"/>
      <path class="cls-1" d="m1649.99,784.51c.02-1.93,1.56-3.47,3.49-3.48,1.95,0,3.57,1.62,3.54,3.56-.02,1.9-1.61,3.48-3.52,3.49-1.96,0-3.54-1.59-3.52-3.56Z"/>
      <path class="cls-1" d="m1635.83,763.4c1.95-.02,3.57,1.6,3.56,3.54-.01,1.9-1.6,3.49-3.5,3.51-1.91.02-3.5-1.53-3.53-3.45-.03-1.99,1.5-3.58,3.47-3.6Z"/>
      <path class="cls-1" d="m1706.44,781.03c1.91.02,3.48,1.6,3.48,3.51,0,1.95-1.62,3.56-3.57,3.53-1.91-.02-3.47-1.6-3.48-3.51,0-1.96,1.6-3.55,3.56-3.53Z"/>
      <path class="cls-1" d="m1688.73,763.4c1.96-.02,3.57,1.58,3.57,3.53,0,1.9-1.59,3.49-3.49,3.51-1.94.02-3.56-1.59-3.55-3.54,0-1.93,1.55-3.48,3.48-3.5Z"/>
      <path class="cls-1" d="m1508.94,784.62c-.02-1.97,1.55-3.57,3.51-3.57,1.91,0,3.5,1.56,3.53,3.47.03,1.94-1.59,3.58-3.53,3.57-1.92,0-3.49-1.56-3.51-3.47Z"/>
      <path class="cls-1" d="m1530.13,763.42c1.92.02,3.48,1.59,3.48,3.5,0,1.94-1.62,3.56-3.56,3.54-1.91-.02-3.47-1.61-3.48-3.52,0-1.96,1.59-3.54,3.56-3.53Z"/>
      <path class="cls-1" d="m1530.13,781.05c1.91.02,3.48,1.6,3.48,3.51,0,1.95-1.62,3.56-3.57,3.53-1.91-.02-3.47-1.6-3.48-3.51,0-1.96,1.6-3.55,3.56-3.53Z"/>
      <path class="cls-1" d="m1512.41,763.42c1.96-.02,3.57,1.58,3.57,3.53,0,1.9-1.59,3.49-3.49,3.51-1.94.02-3.56-1.59-3.55-3.54,0-1.93,1.55-3.48,3.48-3.5Z"/>
    </g>
    <g>
      <path class="cls-1" d="m1597.1,819.69c-.02-1.97,1.55-3.57,3.51-3.57,1.91,0,3.5,1.56,3.53,3.47.03,1.94-1.59,3.58-3.53,3.57-1.92,0-3.49-1.56-3.51-3.47Z"/>
      <path class="cls-1" d="m1579.47,801.97c.02-1.93,1.57-3.47,3.5-3.48,1.95,0,3.57,1.61,3.54,3.55-.02,1.9-1.62,3.48-3.52,3.49-1.95,0-3.54-1.6-3.52-3.57Z"/>
      <path class="cls-1" d="m1544.21,819.62c.01-1.94,1.54-3.48,3.47-3.5,1.95-.01,3.58,1.6,3.56,3.54-.01,1.9-1.6,3.48-3.5,3.5-1.96.02-3.54-1.57-3.53-3.55Z"/>
      <path class="cls-1" d="m1618.29,798.5c1.92.02,3.48,1.59,3.48,3.5,0,1.94-1.62,3.56-3.56,3.54-1.91-.02-3.47-1.61-3.48-3.52,0-1.96,1.59-3.54,3.56-3.53Z"/>
      <path class="cls-1" d="m1579.47,819.6c.02-1.92,1.58-3.47,3.5-3.47,1.95,0,3.56,1.62,3.53,3.57-.03,1.9-1.62,3.48-3.52,3.48-1.96,0-3.54-1.6-3.51-3.57Z"/>
      <path class="cls-1" d="m1561.84,802.02c0-1.98,1.57-3.54,3.55-3.52,1.91.02,3.48,1.6,3.48,3.51,0,1.93-1.64,3.56-3.57,3.54-1.92-.03-3.46-1.6-3.46-3.52Z"/>
      <path class="cls-1" d="m1561.84,819.61c.02-1.93,1.56-3.47,3.49-3.48,1.95,0,3.57,1.62,3.54,3.56-.02,1.9-1.61,3.48-3.52,3.49-1.96,0-3.54-1.59-3.52-3.56Z"/>
      <path class="cls-1" d="m1547.68,798.5c1.95-.02,3.57,1.6,3.56,3.54-.01,1.9-1.6,3.49-3.5,3.51-1.91.02-3.5-1.53-3.53-3.45-.03-1.99,1.5-3.58,3.47-3.6Z"/>
      <path class="cls-1" d="m1618.29,816.12c1.91.02,3.48,1.6,3.48,3.51,0,1.95-1.62,3.56-3.57,3.53-1.91-.02-3.47-1.6-3.48-3.51,0-1.96,1.6-3.55,3.56-3.53Z"/>
      <path class="cls-1" d="m1600.57,798.5c1.96-.02,3.57,1.58,3.57,3.53,0,1.9-1.59,3.49-3.49,3.51-1.94.02-3.56-1.59-3.55-3.54,0-1.93,1.55-3.48,3.48-3.5Z"/>
      <path class="cls-1" d="m1685.25,819.67c-.02-1.97,1.55-3.57,3.51-3.57,1.91,0,3.5,1.56,3.53,3.47.03,1.94-1.59,3.58-3.53,3.57-1.92,0-3.49-1.56-3.51-3.47Z"/>
      <path class="cls-1" d="m1667.62,801.94c.02-1.93,1.57-3.47,3.5-3.48,1.95,0,3.57,1.61,3.54,3.55-.02,1.9-1.62,3.48-3.52,3.49-1.95,0-3.54-1.6-3.52-3.57Z"/>
      <path class="cls-1" d="m1632.36,819.59c.01-1.94,1.54-3.48,3.47-3.5,1.95-.01,3.58,1.6,3.56,3.54-.01,1.9-1.6,3.48-3.5,3.5-1.96.02-3.54-1.57-3.53-3.55Z"/>
      <path class="cls-1" d="m1706.44,798.47c1.92.02,3.48,1.59,3.48,3.5,0,1.94-1.62,3.56-3.56,3.54-1.91-.02-3.47-1.61-3.48-3.52,0-1.96,1.59-3.54,3.56-3.53Z"/>
      <path class="cls-1" d="m1667.62,819.57c.02-1.92,1.58-3.47,3.5-3.47,1.95,0,3.56,1.62,3.53,3.57-.03,1.9-1.62,3.48-3.52,3.48-1.96,0-3.54-1.6-3.51-3.57Z"/>
      <path class="cls-1" d="m1649.99,801.99c0-1.98,1.57-3.54,3.55-3.52,1.91.02,3.48,1.6,3.48,3.51,0,1.93-1.64,3.56-3.57,3.54-1.92-.03-3.46-1.6-3.46-3.52Z"/>
      <path class="cls-1" d="m1649.99,819.58c.02-1.93,1.56-3.47,3.49-3.48,1.95,0,3.57,1.62,3.54,3.56-.02,1.9-1.61,3.48-3.52,3.49-1.96,0-3.54-1.59-3.52-3.56Z"/>
      <path class="cls-1" d="m1635.83,798.47c1.95-.02,3.57,1.6,3.56,3.54-.01,1.9-1.6,3.49-3.5,3.51-1.91.02-3.5-1.53-3.53-3.45-.03-1.99,1.5-3.58,3.47-3.6Z"/>
      <path class="cls-1" d="m1706.44,816.1c1.91.02,3.48,1.6,3.48,3.51,0,1.95-1.62,3.56-3.57,3.53-1.91-.02-3.47-1.6-3.48-3.51,0-1.96,1.6-3.55,3.56-3.53Z"/>
      <path class="cls-1" d="m1688.73,798.47c1.96-.02,3.57,1.58,3.57,3.53,0,1.9-1.59,3.49-3.49,3.51-1.94.02-3.56-1.59-3.55-3.54,0-1.93,1.55-3.48,3.48-3.5Z"/>
      <path class="cls-1" d="m1508.94,819.69c-.02-1.97,1.55-3.57,3.51-3.57,1.91,0,3.5,1.56,3.53,3.47.03,1.94-1.59,3.58-3.53,3.57-1.92,0-3.49-1.56-3.51-3.47Z"/>
      <path class="cls-1" d="m1530.13,798.49c1.92.02,3.48,1.59,3.48,3.5,0,1.94-1.62,3.56-3.56,3.54-1.91-.02-3.47-1.61-3.48-3.52,0-1.96,1.59-3.54,3.56-3.53Z"/>
      <path class="cls-1" d="m1530.13,816.12c1.91.02,3.48,1.6,3.48,3.51,0,1.95-1.62,3.56-3.57,3.53-1.91-.02-3.47-1.6-3.48-3.51,0-1.96,1.6-3.55,3.56-3.53Z"/>
      <path class="cls-1" d="m1512.41,798.49c1.96-.02,3.57,1.58,3.57,3.53,0,1.9-1.59,3.49-3.49,3.51-1.94.02-3.56-1.59-3.55-3.54,0-1.93,1.55-3.48,3.48-3.5Z"/>
    </g>
    <path class="cls-1" d="m1508.94,714.09c-.02-1.98,1.53-3.55,3.52-3.55,1.93,0,3.5,1.54,3.53,3.45.03,1.93-1.6,3.58-3.53,3.58-1.9,0-3.49-1.57-3.51-3.48Z"/>
    <path class="cls-1" d="m1530.04,657.63c1.98-.02,3.57,1.55,3.57,3.51,0,1.91-1.57,3.48-3.48,3.51-1.95.03-3.57-1.57-3.56-3.53,0-1.93,1.55-3.47,3.48-3.49Z"/>
    <path class="cls-1" d="m1512.43,692.9c1.97-.01,3.57,1.57,3.55,3.53-.02,1.9-1.6,3.48-3.5,3.5-1.94.02-3.55-1.6-3.54-3.56.01-1.93,1.55-3.46,3.49-3.47Z"/>
  </g>
  <g>
    <path class="cls-1" d="m1844.11,883.32c-4.48.03-8.11-3.49-8.19-7.93-.08-4.56,3.51-8.27,8.07-8.3,4.53-.04,8.26,3.67,8.22,8.19-.04,4.44-3.65,8.02-8.11,8.05Z"/>
    <path class="cls-1" d="m1835.92,916.07c-.02-4.57,3.62-8.19,8.2-8.16,4.47.03,8.07,3.62,8.1,8.06.03,4.52-3.7,8.22-8.23,8.17-4.47-.04-8.04-3.62-8.07-8.07Z"/>
    <path class="cls-1" d="m1844.02,989.52c4.57-.01,8.25,3.67,8.19,8.19-.06,4.41-3.73,8.05-8.13,8.06-4.52.02-8.2-3.7-8.16-8.24.04-4.47,3.61-8,8.1-8.01Z"/>
    <path class="cls-1" d="m1835.91,956.8c0-4.47,3.55-8.04,8.04-8.08,4.58-.05,8.28,3.59,8.26,8.12-.02,4.41-3.64,8.06-8.06,8.12-4.52.06-8.24-3.62-8.24-8.16Z"/>
  </g>
  <rect class="cls-4" x="1834.38" y="823.56" width="19.38" height="19.38"/>
  <path class="cls-1" d="m1547.86,381.91c1.4-.01,2.8-.03,4.2-.03,4.96,0,9.92,0,14.88,0,.13,0,.26,0,.39-.01,0-6.71,0-13.4-.01-20.08,6.76,0,13.46,0,20.16.01,0-6.78,0-13.47,0-20.16,6.77,0,13.47,0,20.17,0,0-6.78,0-13.48,0-20.19,6.78,0,13.47.01,20.17.02,0-6.78,0-13.47,0-20.14,6.76,0,13.46,0,20.19,0,0-.21.01-.33.01-.45,0-6.16,0-12.33,0-18.49,0-.12.01-.23.02-.35,1.87,1.87,3.73,3.73,5.6,5.6,0,2.43-.01,4.85-.01,7.28,0,3.84,0,7.68,0,11.53,0,.13.03.26.04.38-6.76,0-13.46,0-20.15,0,0,6.76,0,13.46,0,20.18-6.78,0-13.48,0-20.19,0,0,6.74,0,13.45,0,20.15-6.74,0-13.44,0-20.15,0,0,6.75,0,13.46.01,20.21-6.77,0-13.47,0-20.19,0,0,6.7,0,13.39.01,20.19-.53-.02-1.01-.06-1.49-.07-5.93,0-11.86,0-17.78,0-.09,0-.19.01-.28.02-1.87-1.87-3.73-3.73-5.6-5.6Z"/>
  <rect class="cls-3" x="1094.38" y="317" width="458.62" height="458"/>
  <path class="cls-2" d="m980.57,503.81c1,.98,2,1.96,2.99,2.95,3.51,3.51,7.02,7.02,10.52,10.52.09.09.19.18.28.27,4.74-4.75,9.47-9.48,14.19-14.21,4.78,4.79,9.51,9.53,14.24,14.26,4.79-4.79,9.52-9.53,14.25-14.26,4.79,4.79,9.52,9.53,14.25,14.27,4.8-4.8,9.53-9.54,14.27-14.28,4.79,4.8,9.52,9.54,14.25,14.28,4.79-4.8,9.52-9.53,14.24-14.25,4.78,4.78,9.51,9.52,14.27,14.28.15-.14.24-.22.33-.31,4.36-4.36,8.72-8.72,13.07-13.07.08-.08.17-.15.26-.23,0,2.64,0,5.28,0,7.92-1.72,1.71-3.44,3.42-5.16,5.14-2.72,2.71-5.43,5.43-8.15,8.15-.09.09-.16.2-.24.3-4.78-4.78-9.51-9.52-14.25-14.25-4.78,4.78-9.51,9.52-14.26,14.27-4.79-4.79-9.53-9.53-14.28-14.28-4.77,4.77-9.5,9.51-14.24,14.26-4.77-4.77-9.5-9.5-14.25-14.25-4.77,4.78-9.51,9.52-14.28,14.3-4.79-4.79-9.53-9.53-14.27-14.28-4.74,4.74-9.46,9.47-14.27,14.29-.36-.39-.67-.76-1.01-1.1-4.19-4.19-8.38-8.38-12.57-12.58-.07-.07-.14-.12-.21-.18v-7.92Z"/>
  <path class="cls-2" d="m698.38,669.64c.01,1.4.03,2.8.03,4.2,0,4.96,0,9.92,0,14.88,0,.13,0,.26.01.39,6.71,0,13.4,0,20.08-.01,0,6.76,0,13.46-.01,20.16,6.78,0,13.47,0,20.16,0,0,6.77,0,13.47,0,20.17,6.78,0,13.48,0,20.19,0,0,6.78-.01,13.47-.02,20.17,6.78,0,13.47,0,20.14,0,0,6.76,0,13.46,0,20.19.21,0,.33.01.45.01,6.16,0,12.33,0,18.49,0,.12,0,.23.01.35.02-1.87,1.87-3.73,3.73-5.6,5.6-2.43,0-4.85-.01-7.28-.01-3.84,0-7.68,0-11.53,0-.13,0-.26.03-.38.04,0-6.76,0-13.46,0-20.15-6.76,0-13.46,0-20.18,0,0-6.78,0-13.48,0-20.19-6.74,0-13.45,0-20.15,0,0-6.74,0-13.44,0-20.15-6.75,0-13.46,0-20.21.01,0-6.77,0-13.47,0-20.19-6.7,0-13.39,0-20.19.01.02-.53.06-1.01.07-1.49,0-5.93,0-11.86,0-17.78,0-.09-.01-.19-.02-.28,1.87-1.87,3.73-3.73,5.6-5.6Z"/>
  <g>
    <path class="cls-2" d="m105.56,408.09c-4.48.03-8.11-3.49-8.19-7.93-.08-4.56,3.51-8.27,8.07-8.3,4.53-.04,8.26,3.67,8.22,8.19-.04,4.44-3.65,8.02-8.11,8.05Z"/>
    <path class="cls-2" d="m97.37,440.83c-.02-4.57,3.62-8.19,8.2-8.16,4.47.03,8.07,3.62,8.1,8.06.03,4.52-3.7,8.22-8.23,8.17-4.47-.04-8.04-3.62-8.07-8.07Z"/>
    <path class="cls-2" d="m105.47,514.29c4.57-.01,8.25,3.67,8.19,8.19-.06,4.41-3.73,8.05-8.13,8.06-4.52.02-8.2-3.7-8.16-8.24.04-4.47,3.61-8,8.1-8.01Z"/>
    <path class="cls-2" d="m97.37,481.56c0-4.47,3.55-8.04,8.04-8.08,4.58-.05,8.28,3.59,8.26,8.12-.02,4.41-3.64,8.06-8.06,8.12-4.52.06-8.24-3.62-8.24-8.16Z"/>
  </g>
  <rect class="cls-2" x="95.83" y="348.32" width="19.38" height="19.38"/>
</svg>